External Loads File
version=1
nRows=77
nColumns=13
Range=5.000000e-03-10 seconds
endheader
time 	forceRightX 	forceRightY 	forceRightZ 	pointRightX 	pointRightY 	pointRightZ 	forceLeftX 	forceLeftY 	forceLeftZ 	pointLeftX 	pointLeftY 	pointLeftZ 		
5.005000 -0.256705 -30.864761 -0.000000 0.160423 0.433973 -0.168419 -81.147432 765.492382 -0.000000 0.357863 0.191821 -0.414668
5.010000 -7.744780 -37.122320 -0.000000 0.167599 0.441959 -0.168823 -51.658288 740.107798 -0.000000 0.351007 0.184124 -0.414472
5.015000 -15.406706 -44.171589 -0.000000 0.175578 0.449780 -0.169129 -22.615084 708.678906 -0.000000 0.343793 0.177023 -0.414308
5.020000 -23.208755 -51.968390 -0.000000 0.183831 0.456824 -0.169364 4.023034 671.772199 -0.000000 0.336217 0.170290 -0.414091
5.025000 -31.240988 -60.319336 -0.000000 0.192760 0.463248 -0.169831 28.745996 630.527102 -0.000000 0.328232 0.164262 -0.413895
5.030000 -39.399413 -68.969010 -0.000000 0.201796 0.468930 -0.170053 50.626030 586.451411 -0.000000 0.319842 0.158847 -0.413762
5.035000 -47.663154 -77.491629 -0.000000 0.211228 0.474194 -0.170288 70.662761 541.125068 -0.000000 0.311077 0.154025 -0.413692
5.040000 -55.778353 -85.510267 -0.000000 0.220661 0.478753 -0.170380 88.564627 496.103046 -0.000000 0.301888 0.149769 -0.413520
5.045000 -63.603308 -92.539501 -0.000000 0.230431 0.482740 -0.170476 105.201649 452.440416 -0.000000 0.292366 0.146074 -0.413573
5.050000 -70.830894 -98.177934 -0.000000 0.240296 0.485956 -0.170565 120.482350 410.868725 -0.000000 0.282510 0.143098 -0.413664
5.055000 -77.210127 -101.967550 -0.000000 0.250220 0.488565 -0.170568 134.556017 371.565145 -0.000000 0.272352 0.140663 -0.413863
5.060000 -82.451555 -103.482484 -0.000000 0.260207 0.490601 -0.170696 147.151537 334.349232 -0.000000 0.262001 0.138816 -0.414052
5.065000 -86.228075 -102.346501 -0.000000 0.270235 0.491772 -0.170685 157.635631 298.877909 -0.000000 0.251697 0.137947 -0.413851
5.070000 -88.193414 -98.204562 -0.000000 0.280046 0.492426 -0.170620 165.231266 264.783870 -0.000000 0.241563 0.137843 -0.413639
5.075000 -88.009803 -90.760116 -0.000000 0.289470 0.492486 -0.170523 169.128393 231.840284 -0.000000 0.231998 0.138142 -0.413460
5.080000 -85.795820 -79.464876 -0.000000 0.298502 0.491897 -0.170324 169.461121 199.451297 -0.000000 0.222646 0.138949 -0.413399
5.085000 -81.752511 -63.886889 -0.000000 0.307003 0.490882 -0.170118 166.222068 167.506417 -0.000000 0.213653 0.140530 -0.413337
5.090000 -76.396134 -43.457115 -0.000000 0.314956 0.489431 -0.170020 159.879207 136.049256 -0.000000 0.204954 0.142726 -0.413264
5.095000 -70.476611 -17.511318 -0.000000 0.322342 0.487256 -0.169866 151.116570 105.380759 -0.000000 0.196539 0.145541 -0.413231
5.100000 -64.947188 14.609984 -0.000000 0.329121 0.484968 -0.169519 140.640782 76.137750 -0.000000 0.188450 0.149069 -0.413070
5.105000 -60.953958 53.598134 -0.000000 0.335122 0.481552 -0.168960 129.314853 48.873544 -0.000000 0.180655 0.153195 -0.413202
5.110000 -59.635927 99.860644 -0.000000 0.340584 0.477328 -0.167925 117.873239 24.180475 -0.000000 0.173154 0.157937 -0.413036
5.115000 -62.110221 153.204050 -0.000000 0.345109 0.472017 -0.166709 106.879819 2.677475 -0.000000 0.165968 0.163331 -0.412742
5.120000 -68.890953 212.791514 -0.000000 0.349769 0.466301 -0.165861 96.743087 -15.438329 -0.000000 0.159081 0.169271 -0.412603
5.125000 -80.089963 276.851877 -0.000000 0.354617 0.460116 -0.165865 87.640958 -29.991661 -0.000000 0.152481 0.175733 -0.412418
5.130000 -95.142567 342.962375 -0.000000 0.359364 0.452859 -0.165488 79.612254 -41.051340 -0.000000 0.146245 0.182863 -0.412226
5.135000 -113.259196 408.297407 -0.000000 0.363838 0.444411 -0.164809 72.643411 -48.778835 -0.000000 0.140484 0.190410 -0.411952
5.140000 -133.588959 470.080225 -0.000000 0.368478 0.435937 -0.164762 66.722198 -53.425010 -0.000000 0.135079 0.198382 -0.411611
5.145000 -155.483530 525.926626 -0.000000 0.372914 0.427210 -0.164961 61.880121 -55.292268 -0.000000 0.130190 0.206706 -0.411422
5.150000 -177.338258 574.443644 -0.000000 0.377135 0.417805 -0.165087 58.054390 -54.865566 -0.000000 0.125713 0.215246 -0.411513
5.155000 -198.461019 614.779990 -0.000000 0.381256 0.408383 -0.165090 55.273699 -52.550947 -0.000000 0.121815 0.224309 -0.411372
5.160000 -218.697708 646.627109 -0.000000 0.384843 0.399079 -0.164881 53.592636 -48.721925 -0.000000 0.118431 0.233763 -0.411309
5.165000 -234.911117 671.268107 -0.000000 0.388468 0.388844 -0.165105 52.847274 -43.961113 -0.000000 0.115571 0.243408 -0.411166
5.170000 -247.707791 689.182529 -0.000000 0.391558 0.378290 -0.164849 53.182199 -38.505216 -0.000000 0.113214 0.253365 -0.410997
5.175000 -256.537206 701.536264 -0.000000 0.394350 0.367503 -0.164369 54.642700 -32.701726 -0.000000 0.111271 0.263565 -0.411070
5.180000 -261.761472 709.356142 -0.000000 0.396639 0.356596 -0.164394 57.288782 -26.836745 -0.000000 0.109839 0.273944 -0.410879
5.185000 -263.598762 713.790039 -0.000000 0.398381 0.345591 -0.164421 61.092412 -21.181731 -0.000000 0.108928 0.284403 -0.410841
5.190000 -261.915683 716.065812 -0.000000 0.399616 0.334620 -0.164439 65.931465 -16.003438 -0.000000 0.108567 0.295106 -0.410796
5.195000 -257.542733 716.927829 -0.000000 0.400346 0.323670 -0.164423 71.639823 -11.471879 -0.000000 0.108727 0.305726 -0.410892
5.200000 -250.158086 717.425148 -0.000000 0.400436 0.312771 -0.164431 77.965042 -7.884425 -0.000000 0.109391 0.316482 -0.410986
5.205000 -239.406716 718.486457 -0.000000 0.400000 0.301729 -0.164122 84.585365 -5.595585 -0.000000 0.110704 0.327366 -0.411046
5.210000 -226.853961 720.214188 -0.000000 0.398643 0.290889 -0.164066 91.092465 -4.722271 -0.000000 0.112538 0.338090 -0.411212
5.215000 -210.790615 723.547589 -0.000000 0.396818 0.279819 -0.163705 96.967977 -5.673144 -0.000000 0.114997 0.348957 -0.411352
5.220000 -194.593856 727.661531 -0.000000 0.394040 0.269116 -0.163825 101.708158 -8.067371 -0.000000 0.118130 0.359031 -0.411489
5.225000 -175.842643 733.219011 -0.000000 0.390624 0.258811 -0.164048 104.806284 -12.204533 -0.000000 0.121867 0.369354 -0.411560
5.230000 -155.305219 739.702069 -0.000000 0.386711 0.248723 -0.163732 105.865078 -17.905069 -0.000000 0.126239 0.379426 -0.411937
5.235000 -132.540529 746.668891 -0.000000 0.382181 0.238751 -0.163506 104.573926 -25.102694 -0.000000 0.131334 0.389211 -0.411654
5.240000 -108.254584 753.252762 -0.000000 0.377050 0.229212 -0.163229 100.780590 -33.503969 -0.000000 0.136807 0.398892 -0.411225
5.245000 -82.881015 758.562878 -0.000000 0.371318 0.219837 -0.162998 94.495189 -42.806650 -0.000000 0.142587 0.408113 -0.410436
5.250000 -54.407724 761.866295 -0.000000 0.365096 0.211237 -0.162736 85.720150 -52.993389 -0.000000 0.150523 0.416896 -0.410898
5.255000 -27.188202 761.872797 -0.000000 0.358331 0.202939 -0.162400 74.960733 -63.357801 -0.000000 0.157446 0.425515 -0.410753
5.260000 0.331282 757.927429 -0.000000 0.351204 0.195106 -0.161990 62.400329 -73.999298 -0.000000 0.165178 0.433532 -0.410554
5.265000 28.409335 749.258113 -0.000000 0.343585 0.187730 -0.161771 48.243177 -84.872960 -0.000000 0.173612 0.441239 -0.410345
5.270000 55.271659 735.331424 -0.000000 0.335655 0.180929 -0.161467 32.881500 -95.779173 -0.000000 0.182502 0.448347 -0.410144
5.275000 80.631803 715.899933 -0.000000 0.327441 0.174617 -0.161147 16.594478 -106.581794 -0.000000 0.191834 0.454799 -0.410151
5.280000 104.041828 691.020053 -0.000000 0.319004 0.168878 -0.161036 -0.230753 -117.052130 -0.000000 0.201533 0.460694 -0.410258
5.285000 124.129446 661.252884 -0.000000 0.310307 0.163943 -0.160877 -16.919777 -126.944160 -0.000000 0.211035 0.465821 -0.410412
5.290000 142.602707 626.940859 -0.000000 0.301405 0.159595 -0.160460 -33.294556 -135.922051 -0.000000 0.221053 0.470364 -0.409954
5.295000 158.343102 589.147537 -0.000000 0.292155 0.155686 -0.160240 -48.665336 -143.626782 -0.000000 0.230755 0.474531 -0.409803
5.300000 172.600401 548.501739 -0.000000 0.282594 0.152405 -0.159738 -62.914349 -149.529682 -0.000000 0.240941 0.477916 -0.409579
5.305000 183.580568 506.456886 -0.000000 0.273145 0.150294 -0.159848 -75.219314 -153.384687 -0.000000 0.250866 0.480384 -0.409756
5.310000 192.395598 463.432672 -0.000000 0.263489 0.148407 -0.159682 -85.597692 -154.664082 -0.000000 0.260587 0.481792 -0.410249
5.315000 199.109358 419.840813 -0.000000 0.253845 0.147147 -0.159319 -93.931705 -152.934331 -0.000000 0.270355 0.482900 -0.410305
5.320000 203.723398 375.803550 -0.000000 0.244216 0.146596 -0.159148 -100.208828 -147.769343 -0.000000 0.280201 0.483462 -0.410519
5.325000 205.298555 331.821487 -0.000000 0.234759 0.146851 -0.159031 -104.150386 -138.990375 -0.000000 0.289353 0.483281 -0.410806
5.330000 204.219020 287.813853 -0.000000 0.225560 0.147729 -0.158923 -106.138805 -126.049370 -0.000000 0.298121 0.482338 -0.411255
5.335000 200.471726 244.161267 -0.000000 0.216580 0.149179 -0.158943 -106.628012 -108.445182 -0.000000 0.306444 0.480996 -0.411493
5.340000 194.323056 201.354692 -0.000000 0.207979 0.151420 -0.159060 -106.416375 -85.541970 -0.000000 0.314545 0.479053 -0.411847
5.345000 185.694877 160.522339 -0.000000 0.199722 0.154118 -0.159147 -106.305500 -56.877701 -0.000000 0.321775 0.476373 -0.412198
5.350000 175.296800 122.270280 -0.000000 0.191812 0.157391 -0.159204 -107.419987 -21.600649 -0.000000 0.328470 0.472922 -0.412878
5.355000 163.728879 87.347169 -0.000000 0.184276 0.161224 -0.159249 -110.602884 20.973833 -0.000000 0.334615 0.468618 -0.413531
5.360000 151.729559 56.263680 -0.000000 0.176850 0.165740 -0.159457 -116.402660 71.260927 -0.000000 0.340157 0.463718 -0.414014
5.365000 139.989409 29.362244 -0.000000 0.169444 0.170836 -0.159943 -125.001069 129.083698 -0.000000 0.345329 0.458463 -0.414669
5.370000 129.058739 6.956672 -0.000000 0.162368 0.176429 -0.160021 -136.413025 193.354659 -0.000000 0.350094 0.452747 -0.415327
5.375000 119.354727 -11.219084 -0.000000 0.155451 0.182697 -0.160320 -149.820305 262.586328 -0.000000 0.354699 0.446078 -0.415918
5.380000 111.049241 -25.166848 -0.000000 0.148942 0.189498 -0.160393 -164.731611 334.207932 -0.000000 0.359299 0.438996 -0.416332
5.385000 104.147440 -35.276818 -0.000000 0.142850 0.196862 -0.160465 -180.146952 405.555920 -0.000000 0.363916 0.431256 -0.416348
